<svg id="Objects" xmlns="http://www.w3.org/2000/svg" xmlns:xlink="http://www.w3.org/1999/xlink" viewBox="0 0 644.03 488.58">
  <defs>
    <linearGradient id="linear-gradient" x1="132.87" y1="182.67" x2="629.38" y2="542.53" gradientUnits="userSpaceOnUse">
      <stop offset="0" stop-color="#00a099"/>
      <stop offset="1" stop-color="#444"/>
    </linearGradient>
    <linearGradient id="linear-gradient-2" x1="114.69" y1="207.74" x2="611.21" y2="567.61" xlink:href="#linear-gradient"/>
    <linearGradient id="linear-gradient-3" x1="620.79" y1="651.73" x2="387.32" y2="435.06" xlink:href="#linear-gradient"/>
    <linearGradient id="linear-gradient-4" x1="657.02" y1="612.69" x2="423.55" y2="396.02" xlink:href="#linear-gradient"/>
    <linearGradient id="linear-gradient-5" x1="709.59" y1="556.04" x2="476.12" y2="339.38" xlink:href="#linear-gradient"/>
  </defs>
  <title>new</title>
  <g>
    <path d="M400.3,139.81v90.67a14.86,14.86,0,0,1-14.86,14.85h-2.59a14.94,14.94,0,0,1-14.94-14.94V139.81a32.43,32.43,0,0,0-32.38-32.4l-81,0a32.42,32.42,0,0,0-32.4,32.38V216a29.3,29.3,0,0,1-29.31,29.3H139.65l-24.14,1.1a32.42,32.42,0,0,0-32.38,32.39v81a32.42,32.42,0,0,0,32.38,32.41h20.92a16.19,16.19,0,0,1,16.2,16.19h0a16.19,16.19,0,0,1-16.2,16.19H115.51a64.77,64.77,0,0,1-64.77-64.77v-81a64.82,64.82,0,0,1,64.77-64.77H162.8a26.94,26.94,0,0,0,26.94-26.94v-47.3A64.79,64.79,0,0,1,254.53,75h81A64.85,64.85,0,0,1,400.3,139.81Z" transform="translate(-50.74 -75.02)" fill="url(#linear-gradient)"/>
    <path d="M539.32,278.84v81a64.86,64.86,0,0,1-64.79,64.79H427.24a26.94,26.94,0,0,0-26.94,26.94v47.31a64.77,64.77,0,0,1-64.77,64.77h-81a64.79,64.79,0,0,1-64.79-64.79V408.13A15.33,15.33,0,0,1,205,392.87h1.84a15.27,15.27,0,0,1,15.27,15.27v90.69a32.39,32.39,0,0,0,32.38,32.39h81a32.43,32.43,0,0,0,32.38-32.39V422.17a29.3,29.3,0,0,1,29.31-29.3H468l6.52-.67a32.41,32.41,0,0,0,32.38-32.41v-81a32.41,32.41,0,0,0-32.38-32.39h-19a16.19,16.19,0,0,1-16.2-16.19h0a16.19,16.19,0,0,1,16.2-16.19h19A64.79,64.79,0,0,1,539.32,278.84Z" transform="translate(-50.74 -75.02)" fill="url(#linear-gradient-2)"/>
  </g>
  <circle cx="294.98" cy="309.42" r="7.5" transform="translate(-157.37 380.9) rotate(-66.41)" fill="#3cbdb2"/>
  <path d="M318.93,312.09a3.49,3.49,0,1,1-4.8-1.16A3.49,3.49,0,0,1,318.93,312.09Z" transform="translate(-50.74 -75.02)" fill="#3cbdb2"/>
  <circle cx="225.4" cy="237.02" r="3.49" fill="#3cbdb2"/>
  <ellipse cx="244.89" cy="252.78" rx="4.03" ry="4.01" fill="#3cbdb2"/>
  <path d="M310,329.67a1.87,1.87,0,1,1-2.57-.62A1.86,1.86,0,0,1,310,329.67Z" transform="translate(-50.74 -75.02)" fill="#3cbdb2"/>
  <ellipse cx="233.63" cy="254.56" rx="1.87" ry="1.87" fill="#3cbdb2"/>
  <ellipse cx="245.01" cy="266.18" rx="3.34" ry="3.33" fill="#3cbdb2"/>
  <path d="M307.64,342.75a1.55,1.55,0,0,1-2.65,1.61,1.53,1.53,0,0,1,.52-2.12A1.54,1.54,0,0,1,307.64,342.75Z" transform="translate(-50.74 -75.02)" fill="#3cbdb2"/>
  <ellipse cx="235.69" cy="267.66" rx="1.55" ry="1.55" fill="#3cbdb2"/>
  <g>
    <path d="M325.3,304l46.44,18.7s7.42,18.39,7.42,24.19-9.2,21.45-17.42,22.74-52.56-13.55-52.56-13.55Z" transform="translate(-50.74 -75.02)" fill="#3cbdb2"/>
    <path d="M216,349.67c-5.5-26,12.56-31.32,47.73-44.18,10.53,6.28,5.58-2.55,22,49-5.44,13.27-17-11.19-22.33-12.26C246,338.77,243.15,341.86,216,349.67Z" transform="translate(-50.74 -75.02)" fill="#9ad8e0"/>
    <path d="M340.08,372.42c-36.29-13.62-38.66-13.12-36.87-17.89,21.49-57.28,19.62-53.6,21.65-54.52s.3-1.07,37.55,12.91C401.33,327.51,379.54,387.23,340.08,372.42Zm33.81-21.25c10.58-28.18-23.8-34.77-45.25-42.82-14.36,38.27-19.18,44.48-10.6,47.7C336.61,363,363.93,377.73,373.89,351.17Z" transform="translate(-50.74 -75.02)" fill="#3cbdb2"/>
    <path d="M291.11,354.53c-21.5-57.28-19.63-53.6-21.65-54.52s-.31-1.07-37.56,12.91c-33.07,12.4-24,61.55,11.15,61.55,7.64,0,8.83-1.17,45.84-15.05A3.8,3.8,0,0,0,291.11,354.53ZM260,315.88c-18.83,6.39-40,9.45-41.07,28A24.18,24.18,0,0,1,234.57,320c38.19-14.33,28.26-19.25,48.1,33.63C279.56,354.82,271.34,312,260,315.88Z" transform="translate(-50.74 -75.02)" fill="#4f6467"/>
    <path d="M367.83,355.29c-1.32-1.16-1.63,1.64-7,3.82-9,3.67-14.16,0-36.25-9.15-9.21-3.79,11.67-35.9,6.71-37.76-1.31-.49-.33-1.88-14.07,34.74.37,0-1.29,1.81.17,5,1.55,3.4,2.31,2.92,25.5,11.62C358.22,369.33,369.2,356.49,367.83,355.29Z" transform="translate(-50.74 -75.02)" fill="#4f6467"/>
  </g>
  <g>
    <circle cx="429.49" cy="280.3" r="20.82" transform="translate(-49.99 486.71) rotate(-66.41)" fill="#3cbdb2"/>
    <path d="M496,287.72a9.69,9.69,0,1,1-13.32-3.24A9.69,9.69,0,0,1,496,287.72Z" transform="translate(-50.74 -75.02)" fill="#3cbdb2"/>
    <circle cx="326.46" cy="212.57" r="9.69" fill="#3cbdb2"/>
    <ellipse cx="380.54" cy="256.3" rx="11.18" ry="11.14" fill="#3cbdb2"/>
    <path d="M471.11,336.52a5.2,5.2,0,1,1-7.15-1.73A5.18,5.18,0,0,1,471.11,336.52Z" transform="translate(-50.74 -75.02)" fill="#3cbdb2"/>
    <ellipse cx="349.31" cy="261.26" rx="5.2" ry="5.19" fill="#3cbdb2"/>
    <ellipse cx="380.9" cy="293.51" rx="9.26" ry="9.23" fill="#3cbdb2"/>
    <path d="M464.64,372.84a4.31,4.31,0,1,1-5.92-1.44A4.29,4.29,0,0,1,464.64,372.84Z" transform="translate(-50.74 -75.02)" fill="#3cbdb2"/>
    <ellipse cx="355.02" cy="297.61" rx="4.31" ry="4.3" fill="#3cbdb2"/>
  </g>
  <g>
    <circle cx="153.18" cy="281.22" r="20.82" transform="translate(-216.58 234.04) rotate(-66.41)" fill="#3cbdb2"/>
    <path d="M219.67,288.64a9.69,9.69,0,1,1-13.32-3.24A9.7,9.7,0,0,1,219.67,288.64Z" transform="translate(-50.74 -75.02)" fill="#3cbdb2"/>
    <circle cx="50.15" cy="213.49" r="9.69" fill="#3cbdb2"/>
    <ellipse cx="104.23" cy="257.23" rx="11.18" ry="11.14" fill="#3cbdb2"/>
    <path d="M194.8,337.45a5.2,5.2,0,1,1-7.15-1.74A5.22,5.22,0,0,1,194.8,337.45Z" transform="translate(-50.74 -75.02)" fill="#3cbdb2"/>
    <ellipse cx="73" cy="262.18" rx="5.2" ry="5.19" fill="#3cbdb2"/>
    <ellipse cx="104.59" cy="294.43" rx="9.26" ry="9.23" fill="#3cbdb2"/>
    <path d="M188.33,373.76a4.31,4.31,0,1,1-5.92-1.44A4.3,4.3,0,0,1,188.33,373.76Z" transform="translate(-50.74 -75.02)" fill="#3cbdb2"/>
    <ellipse cx="78.71" cy="298.54" rx="4.31" ry="4.3" fill="#3cbdb2"/>
  </g>
  <g>
    <circle cx="291.9" cy="419.43" r="20.82" transform="translate(-260.03 444.06) rotate(-66.41)" fill="#3cbdb2"/>
    <path d="M358.38,426.85a9.69,9.69,0,1,1-13.31-3.24A9.69,9.69,0,0,1,358.38,426.85Z" transform="translate(-50.74 -75.02)" fill="#3cbdb2"/>
    <circle cx="188.86" cy="351.7" r="9.69" fill="#3cbdb2"/>
    <ellipse cx="242.94" cy="395.43" rx="11.18" ry="11.14" fill="#3cbdb2"/>
    <path d="M333.51,475.65a5.2,5.2,0,1,1-7.15-1.73A5.17,5.17,0,0,1,333.51,475.65Z" transform="translate(-50.74 -75.02)" fill="#3cbdb2"/>
    <ellipse cx="211.71" cy="400.39" rx="5.2" ry="5.19" fill="#3cbdb2"/>
    <ellipse cx="243.3" cy="432.64" rx="9.26" ry="9.23" fill="#3cbdb2"/>
    <path d="M327,512a4.31,4.31,0,1,1-5.92-1.44A4.28,4.28,0,0,1,327,512Z" transform="translate(-50.74 -75.02)" fill="#3cbdb2"/>
    <ellipse cx="217.42" cy="436.74" rx="4.31" ry="4.3" fill="#3cbdb2"/>
  </g>
  <g>
    <circle cx="297.81" cy="215.13" r="20.82" transform="translate(-69.26 326.93) rotate(-66.41)" fill="#3cbdb2"/>
    <path d="M231.32,207.7a9.69,9.69,0,1,1,13.32,3.24A9.69,9.69,0,0,1,231.32,207.7Z" transform="translate(-50.74 -75.02)" fill="#3cbdb2"/>
    <circle cx="299.36" cy="132.8" r="9.69" fill="#3cbdb2"/>
    <ellipse cx="245.28" cy="89.07" rx="11.18" ry="11.14" fill="#3cbdb2"/>
    <path d="M256.19,158.9a5.2,5.2,0,1,1,7.15,1.73A5.18,5.18,0,0,1,256.19,158.9Z" transform="translate(-50.74 -75.02)" fill="#3cbdb2"/>
    <ellipse cx="276.51" cy="84.11" rx="5.2" ry="5.19" fill="#3cbdb2"/>
    <ellipse cx="244.92" cy="51.86" rx="9.26" ry="9.23" fill="#3cbdb2"/>
    <path d="M262.66,122.58a4.3,4.3,0,1,1,5.92,1.44A4.29,4.29,0,0,1,262.66,122.58Z" transform="translate(-50.74 -75.02)" fill="#3cbdb2"/>
    <ellipse cx="270.8" cy="47.76" rx="4.31" ry="4.3" fill="#3cbdb2"/>
  </g>
  <text x="-50.74" y="-75.02"/>  <g>
    <path d="M408.06,529.52a10.08,10.08,0,0,1-1.11-4.4,6.63,6.63,0,0,1,.74-3.08,8.25,8.25,0,0,1,1.88-2.43,9.51,9.51,0,0,1,2.57-1.61,7.15,7.15,0,0,1,2.8-.59q3.68,0,7.53,4.86a27.23,27.23,0,0,0,10.79,10.38,32.63,32.63,0,0,0,15.83,3.76,31,31,0,0,0,8.86-1.29,25.59,25.59,0,0,0,7.81-3.76,20,20,0,0,0,5.6-6.15,16.44,16.44,0,0,0,2.15-8.45,13.28,13.28,0,0,0-2.15-7.76,18.57,18.57,0,0,0-5.65-5.18,35.88,35.88,0,0,0-7.85-3.49c-2.9-.92-5.83-1.81-8.77-2.66a100.41,100.41,0,0,1-15-4.32,48.63,48.63,0,0,1-12.39-6.7,30.79,30.79,0,0,1-8.45-9.64,26.54,26.54,0,0,1-3.12-13.13A29.39,29.39,0,0,1,413.43,450a34,34,0,0,1,8.63-10.65,39.68,39.68,0,0,1,12.25-6.8,43.19,43.19,0,0,1,14.23-2.38,50.72,50.72,0,0,1,10.88,1.15,44.33,44.33,0,0,1,9.87,3.37,37.85,37.85,0,0,1,8.4,5.54,31.26,31.26,0,0,1,6.38,7.66,6.63,6.63,0,0,1,.83,3.12,7.22,7.22,0,0,1-2.16,5.23,7.32,7.32,0,0,1-5.46,2.2,8.32,8.32,0,0,1-5-1.65,45.84,45.84,0,0,0-5.19-4.68,26.82,26.82,0,0,0-5.27-3.17,26.13,26.13,0,0,0-6-1.83,38.68,38.68,0,0,0-7.07-.6,29.85,29.85,0,0,0-8.26,1.15A23,23,0,0,0,433.4,451a17.43,17.43,0,0,0-5,5.46,14.2,14.2,0,0,0-1.93,7.39,11.54,11.54,0,0,0,2.39,7.48,18.68,18.68,0,0,0,6.25,5,44.79,44.79,0,0,0,8.83,3.31c3.31.88,6.71,1.73,10.2,2.52a130,130,0,0,1,13.15,4.55,46.85,46.85,0,0,1,11.45,6.56,30.79,30.79,0,0,1,8,9.46,27.24,27.24,0,0,1,3,13.31,33.33,33.33,0,0,1-3.27,14.73,36.51,36.51,0,0,1-8.91,11.66A40.63,40.63,0,0,1,464.47,550a46.62,46.62,0,0,1-16,2.71A49.21,49.21,0,0,1,423.52,546a42.42,42.42,0,0,1-9.27-7.38A33.13,33.13,0,0,1,408.06,529.52Z" transform="translate(-50.74 -75.02)" fill="url(#linear-gradient-3)"/>
    <path d="M574.69,535.4H517.77l-4.41,11.38a8.45,8.45,0,0,1-3.08,3.81,7.68,7.68,0,0,1-4.45,1.43,8.56,8.56,0,0,1-3.49-.69,8,8,0,0,1-2.66-1.88,8.27,8.27,0,0,1-1.65-2.67,8.43,8.43,0,0,1-.55-3,10,10,0,0,1,.55-3.21l40.3-104.66a9.63,9.63,0,0,1,2.76-3.72,7.19,7.19,0,0,1,4.95-1.79,9.12,9.12,0,0,1,5.1,1.42,7.48,7.48,0,0,1,3,3.54L594.7,540.54a14.52,14.52,0,0,1,.46,1.65,7.45,7.45,0,0,1,.19,1.56,7.7,7.7,0,0,1-.65,3.13,8.32,8.32,0,0,1-1.79,2.61,8.72,8.72,0,0,1-2.71,1.84,8.29,8.29,0,0,1-3.39.69,8,8,0,0,1-4.59-1.43,7.81,7.81,0,0,1-3-3.81Zm-50.31-16.8h43.79l-21.85-57Z" transform="translate(-50.74 -75.02)" fill="url(#linear-gradient-4)"/>
    <path d="M606.73,476.92v-.83A48.86,48.86,0,0,1,610,458.33a42.3,42.3,0,0,1,22.9-24.24,41.78,41.78,0,0,1,17.22-3.54,42.87,42.87,0,0,1,17.3,3.54,45.57,45.57,0,0,1,14.19,9.59,44.26,44.26,0,0,1,9.59,14.65,46.13,46.13,0,0,1,3.53,17.76,43.91,43.91,0,0,1-1.6,11.89,45.35,45.35,0,0,1-4.5,10.7,44.56,44.56,0,0,1-7,9,45.86,45.86,0,0,1-9,7A44.58,44.58,0,0,1,662,519.29a43.44,43.44,0,0,1-11.84,1.6,32.54,32.54,0,0,1-14.83-3.3,47.72,47.72,0,0,1-11.8-8.36l-.37,34.06a9,9,0,0,1-2.29,6,7.45,7.45,0,0,1-5.79,2.43,8.07,8.07,0,0,1-5.92-2.43,8.18,8.18,0,0,1-2.43-6Zm44,27.26a27.29,27.29,0,0,0,11-2.24,28.84,28.84,0,0,0,15.15-15.11,27.31,27.31,0,0,0,2.25-11,26.35,26.35,0,0,0-2.25-10.88,33.47,33.47,0,0,0-6.11-9.14,24.91,24.91,0,0,0-9-6.2,29.54,29.54,0,0,0-11-2.06,26.8,26.8,0,0,0-10.84,2.2,25.21,25.21,0,0,0-8.81,6.43,34.79,34.79,0,0,0-6,9.27,26.79,26.79,0,0,0-2.2,10.83,27.06,27.06,0,0,0,2.2,10.88,28.12,28.12,0,0,0,6,8.86,28.47,28.47,0,0,0,8.81,6A26.8,26.8,0,0,0,650.71,504.18Z" transform="translate(-50.74 -75.02)" fill="url(#linear-gradient-5)"/>
  </g>
</svg>
